<svg width="92" height="19" viewBox="0 0 92 19" fill="none" xmlns="http://www.w3.org/2000/svg">
<g clip-path="url(#clip0)">
<path d="M30.0066 10.1986C30.4273 11.0114 30.4895 11.8003 30.0974 12.6131L29.0695 14.8747C28.4957 16.1704 27.5299 16.8063 26.2007 16.8063H19.9277H16.3369L18.0869 12.9717L19.6264 9.59137L22.28 11.5852L21.6441 12.9717H24.8428C24.9337 12.79 24.8715 12.551 24.6898 12.2163L21.9454 7.14813C21.5246 6.33532 21.4624 5.5464 21.8545 4.73359L22.8825 2.47204C23.4562 1.205 24.4221 0.540406 25.7513 0.540406H32.0578H35.6485L33.8986 4.37499L32.359 7.75536L29.6719 5.76156L30.3078 4.37499H27.1091C27.0183 4.55668 27.0804 4.79574 27.2621 5.13043L30.0066 10.1986ZM42.4092 6.72738L45.2445 0.511719H50.3127L42.8634 16.7776H37.8192L40.6545 10.562H37.8192L34.9839 16.7776H29.9157L37.3698 0.511719H42.4379L39.6026 6.72738H42.4092ZM55.3569 4.37499L53.7552 7.87489H55.749C56.3228 7.87489 56.7435 7.57367 57.016 6.97123L57.8002 5.28343C58.0727 4.68099 57.9197 4.37977 57.3794 4.37977H55.3569V4.37499ZM52.426 11.7095H52.0053L49.6816 16.7776H44.6134L52.0674 0.511719H63.0835C64.4127 0.511719 64.7713 1.14763 64.1688 2.44336L60.8172 9.77784C60.2434 11.0449 59.2776 11.7095 57.9484 11.7095H57.6185L58.3404 16.7776H53.1814L52.426 11.7095ZM67.1858 10.5907L66.1005 12.9765H72.8899L71.1399 16.8111H59.2824L66.7364 0.545188H78.5605L76.8105 4.37977H70.0211L68.9358 6.76563H74.5777L72.8277 10.6002H67.1858V10.5907ZM83.5999 4.37499L79.6745 12.943H81.2141C81.7878 12.943 82.6628 12.6131 83.3274 11.1931L85.6511 6.12494C86.287 4.73837 85.7133 4.3463 85.1682 4.3463L83.5999 4.37499ZM72.8277 16.8111L80.2817 0.545188H89.3949C90.724 0.545188 92.8661 1.48232 91.4173 4.59015L87.5827 12.9478C86.5882 15.0898 83.2366 16.8111 81.9408 16.8111H72.8277Z" fill="#010101"/>
<path d="M0.0996094 0H7.07071L9.27488 3.77243H7.88353L11.3547 10.1985L14.496 3.77243H13.1047L15.3089 0H21.558L11.5077 18.8L0.0996094 0Z" fill="#010101"/>
</g>
<defs>
<clipPath id="clip0">
<rect width="91.8005" height="18.8" fill="white" transform="translate(0.0996094)"/>
</clipPath>
</defs>
</svg>
